<?xml version="1.0"?>
<svg xmlns="http://www.w3.org/2000/svg" xmlns:xlink="http://www.w3.org/1999/xlink" xmlns:svgjs="http://svgjs.com/svgjs" version="1.1" width="512" height="512" x="0" y="0" viewBox="0 0 478.096 478.096" style="enable-background:new 0 0 512 512" xml:space="preserve" class=""><g><g xmlns="http://www.w3.org/2000/svg"><path d="m40.671 478.096h141.773c22.451-.025 40.644-18.219 40.669-40.67v-253.327c-.026-19.061-13.268-35.555-31.873-39.701v-8.937c-.015-13.196-10.709-23.89-23.905-23.905v-23.905c0-4.401-3.568-7.968-7.968-7.968h-15.937v-31.873h55.778c3.018 0 5.777-1.705 7.127-4.404l15.937-31.873c1.968-3.936.373-8.722-3.563-10.691-1.107-.554-2.327-.842-3.564-.842h-111.556c-13.196.015-23.89 10.709-23.905 23.905v55.778h-15.936c-4.401 0-7.968 3.568-7.968 7.968v23.905c-13.196.015-23.89 10.709-23.905 23.905v8.937c-18.605 4.146-31.847 20.64-31.873 39.701v253.327c.025 22.45 18.218 40.644 40.669 40.67zm141.773-15.937h-141.773c-13.653-.016-24.717-11.08-24.732-24.733v-7.14h191.238v7.14c-.016 13.653-11.08 24.717-24.733 24.733zm-166.506-47.81v-207.174h191.238v207.175h-191.238zm87.651-398.412h98.663l-7.968 15.937h-98.663v-7.968c.005-4.4 3.57-7.965 7.968-7.969zm-7.968 31.873h31.873v31.873h-31.873zm-23.905 47.809h79.683v15.937h-79.683zm-15.936 31.873h111.556c4.399.005 7.963 3.57 7.968 7.968v7.968h-127.493v-7.968c.005-4.398 3.57-7.963 7.969-7.968zm-15.109 31.873h141.773c13.653.016 24.717 11.08 24.732 24.733v7.14h-191.238v-7.14c.016-13.653 11.08-24.717 24.733-24.733z" fill="#213546" data-original="#000000" style="" class=""/><path d="m456.683 366.72c13.308-27.777 1.579-61.084-26.199-74.392-5.537-2.653-11.474-4.373-17.571-5.091-3.691-28.547-14.549-49.28-32.327-61.693-28.057-19.591-62.501-10.517-63.953-10.121-4.246 1.158-6.749 5.538-5.592 9.784.657 2.411 2.408 4.374 4.728 5.302 7.34 2.935 15.214 8.683 15.318 11.18.015.354-1.309 2.845-7.954 6.167-15.656 7.825-24.112 21.978-24.313 40.301-30.079 6.583-49.127 36.305-42.543 66.384.922 4.214 2.33 8.306 4.196 12.195-26.316 23.354-28.718 63.621-5.363 89.937 12.099 13.634 29.458 21.432 47.687 21.421h111.556c35.195.009 63.733-28.515 63.742-63.71.003-18.217-7.79-35.566-21.412-47.664zm-42.332 95.439h-111.555c-26.404 0-47.81-21.405-47.81-47.81 0-26.404 21.405-47.81 47.81-47.81 4.401 0 7.968-3.568 7.968-7.968 0-4.401-3.568-7.968-7.968-7.968-10.064-.008-19.985 2.382-28.941 6.972-8.26-20.389 1.573-43.614 21.962-51.874s43.614 1.573 51.874 21.962c1.927 4.756 2.916 9.84 2.914 14.971 0 4.401 3.568 7.968 7.968 7.968s7.968-3.568 7.968-7.968c-.039-29.223-22.601-53.473-51.745-55.616.471-11.625 5.643-19.994 15.467-24.908 11.454-5.728 17.093-12.822 16.75-21.083-.174-4.17-1.912-8.167-5.188-11.952 9.237.514 20.144 2.868 29.746 9.611 15.061 10.576 23.878 29.7 26.208 56.839.354 4.121 3.801 7.286 7.937 7.287h.125l.541-.018c22.004 0 39.841 17.838 39.841 39.841s-17.838 39.841-39.841 39.841c-4.401 0-7.968 3.568-7.968 7.968 0 4.401 3.568 7.968 7.968 7.968 15.729.006 30.726-6.644 41.281-18.305 18.931 18.377 19.381 48.622 1.004 67.553-9.005 9.278-21.386 14.509-34.316 14.499z" fill="#213546" data-original="#000000" style="" class=""/><path d="m190.665 315.022c-1.641-4.08-6.277-6.06-10.359-4.423-9.024 3.627-17.963 9.828-26.569 18.434-15.438 15.439-29.663 14.2-32.183 13.836-37.965-12.849-60.097-42.132-65.556-50.1.742-4.778 2.561-9.325 5.318-13.297 7.669-10.959 21.894-16.518 42.273-16.518 33.566 0 61.07-2.822 81.752-8.387 4.25-1.143 6.768-5.515 5.625-9.765s-5.515-6.768-9.765-5.625c-19.334 5.202-45.446 7.84-77.613 7.84-32.242 0-47.886 12.681-55.334 23.319-5.108 7.181-8.029 15.686-8.412 24.49v22.61l-7.56 22.68c-1.254 3.762.449 7.873 3.996 9.647l12.104 6.052c2.454 10.918 12.143 18.68 23.333 18.695v15.937c0 4.401 3.567 7.968 7.968 7.968 1.014 0 2.018-.193 2.959-.57l39.841-15.937c3.025-1.21 5.009-4.14 5.009-7.399v-15.682c9.064-.647 23.274-4.292 37.508-18.526 7.072-7.072 14.223-12.095 21.24-14.915 4.085-1.641 6.066-6.281 4.425-10.364zm-79.107 54.091-23.905 9.562v-12.135c0-4.401-3.568-7.968-7.968-7.968h-7.968c-4.399-.005-7.963-3.57-7.968-7.968 0-3.018-1.705-5.777-4.404-7.127l-9.761-4.881 5.789-17.346c.27-.813.408-1.664.408-2.52v-.804c11.639 12.594 30.18 28.523 55.778 38.289v12.898z" fill="#213546" data-original="#000000" style="" class=""/><path d="m181.852 276.06c-10.062 1.734-20.244 2.68-30.453 2.829-7.47 0-45.257.98-54.936 20.341-1.999 3.921-.441 8.719 3.479 10.718 3.921 1.999 8.719.441 10.718-3.479.019-.037.037-.074.056-.111 3.917-7.835 26.594-11.512 40.683-11.532 11.162-.139 22.296-1.171 33.293-3.088 4.33-.784 7.205-4.931 6.42-9.261-.784-4.33-4.931-7.205-9.261-6.42z" fill="#213546" data-original="#000000" style="" class=""/></g></g></svg>
