<?xml version="1.0"?>
<svg xmlns="http://www.w3.org/2000/svg" xmlns:xlink="http://www.w3.org/1999/xlink" xmlns:svgjs="http://svgjs.com/svgjs" version="1.1" width="512" height="512" x="0" y="0" viewBox="0 0 512.009 512.009" style="enable-background:new 0 0 512 512" xml:space="preserve" class=""><g><g xmlns="http://www.w3.org/2000/svg"><circle cx="224.413" cy="207.739" r="7.5" fill="#213546" data-original="#000000" style="" class=""/><circle cx="115.257" cy="396.803" r="7.5" fill="#213546" data-original="#000000" style="" class=""/><path d="m417.564 259.035c11.434 6.603 26.032 2.69 32.633-8.744 6.586-11.408 2.663-26.047-8.744-32.633-11.435-6.601-26.03-2.692-32.633 8.744-6.6 11.433-2.692 26.031 8.744 32.633zm4.247-25.133c1.637-2.835 4.607-4.448 7.713-4.448 6.781 0 11.107 7.407 7.684 13.337-2.457 4.254-7.887 5.711-12.143 3.253-4.246-2.45-5.705-7.897-3.254-12.142z" fill="#213546" data-original="#000000" style="" class=""/><path d="m219.39 357.512 136.236-71.768c3.665-1.931 5.071-6.467 3.141-10.131-1.931-3.664-6.466-5.072-10.131-3.14l-136.237 71.768c-3.665 1.931-5.07 6.467-3.14 10.131 1.924 3.653 6.455 5.076 10.131 3.14z" fill="#213546" data-original="#000000" style="" class=""/><path d="m25.392 492.177c43.61 0 84.246-23.461 106.051-61.229l.843-1.461c10.062-3.225 20.169-6.583 30.126-10.01 3.917-1.348 6-5.616 4.651-9.532-1.348-3.917-5.617-5.999-9.532-4.651-13.353 4.596-24.376 8.187-35.859 11.83-8.417 2.657-17.376-.825-21.789-8.468-5.147-8.915-2.082-20.355 6.833-25.502 405.915-234.355-63.985 36.942 341.492-197.16 12.358-7.135 28.216-2.885 35.352 9.473l9.968 17.265c7.151 12.387 2.916 28.199-9.473 35.352l-69.287 40.003c-71.396 41.221-146.787 76.666-224.078 105.351-3.883 1.441-5.863 5.757-4.422 9.641s5.757 5.865 9.641 4.422c78.078-28.977 154.236-64.783 226.359-106.423l69.287-40.003c19.566-11.296 26.262-36.273 14.963-55.842l-9.968-17.265c-11.271-19.521-36.318-26.234-55.842-14.963l-240.511 138.857 36.43-63.1 41.33-1.912c3.479-.161 6.593-2.058 8.327-5.068l86.99-150.67c11.271-19.523 4.558-44.576-14.965-55.847-7.496-4.327-4.823-2.785-17.259-9.964-19.524-11.271-44.575-4.557-55.847 14.964l-158.435 274.42c-2.9 5.023.775 11.251 6.488 11.251 2.592 0 5.113-1.346 6.502-3.751l57.423-99.46c5.542 10.111 16.36 16.371 27.858 16.11l-50.822 88.027-55.739 32.181 3.274-5.67c2.071-3.587.842-8.174-2.745-10.245-3.588-2.072-8.175-.842-10.245 2.745l-18.071 31.3c-2.884 3.308-5.058 7.118-6.457 11.184l-9.272 16.06c-11.498 19.914-31.098 33.52-53.775 37.329-12.277 2.061-21.187 12.592-21.187 25.039 0 14.001 11.391 25.392 25.392 25.392zm190.976-270.503c-7.482-4.32-10.43-14.033-5.887-21.985l87.714-151.925c7.136-12.359 22.996-16.609 35.356-9.474l5.454 3.149-51.036 88.398c-2.071 3.587-.842 8.174 2.745 10.245 3.588 2.071 8.174.841 10.245-2.745l51.018-88.367c11.454 7.437 15.213 22.679 8.307 34.641l-85.666 148.377-29.083 1.345 37.879-65.609c2.071-3.587.842-8.174-2.745-10.245-3.589-2.072-8.175-.842-10.245 2.745-33.509 58.04-32.001 55.458-32.077 55.559-4.446 7.702-14.277 10.338-21.979 5.891zm-192.698 234.864c25.976-4.363 48.575-19.48 62.51-41.681 5.375 10.32 15.284 16.81 26.176 17.975-20.06 27.599-52.451 44.345-86.965 44.345-5.73 0-10.392-4.662-10.392-10.392.001-5.094 3.647-9.403 8.671-10.247z" fill="#213546" data-original="#000000" style="" class=""/></g></g></svg>
